<mxfile host="app.diagrams.net" modified="2023-11-23T21:01:04.184Z" agent="Mozilla/5.0 (Windows NT 10.0; Win64; x64) AppleWebKit/537.36 (KHTML, like Gecko) Chrome/119.0.0.0 Safari/537.36" etag="rqh5FxGeyIMDAnR8nEBR" version="22.1.3" type="github">
  <diagram name="Page-1" id="e7e014a7-5840-1c2e-5031-d8a46d1fe8dd">
    <mxGraphModel dx="2293" dy="636" grid="1" gridSize="10" guides="1" tooltips="1" connect="1" arrows="1" fold="1" page="1" pageScale="1" pageWidth="1169" pageHeight="826" background="none" math="0" shadow="0">
      <root>
        <mxCell id="0" />
        <mxCell id="1" parent="0" />
        <mxCell id="2" value="SYSTEM" style="swimlane;whiteSpace=wrap" parent="1" vertex="1">
          <mxGeometry x="164.5" y="128" width="280" height="570" as="geometry" />
        </mxCell>
        <mxCell id="5" value="" style="ellipse;shape=startState;fillColor=#000000;strokeColor=#ff0000;" parent="2" vertex="1">
          <mxGeometry x="100" y="40" width="30" height="30" as="geometry" />
        </mxCell>
        <mxCell id="6" value="" style="edgeStyle=elbowEdgeStyle;elbow=horizontal;verticalAlign=bottom;endArrow=open;endSize=8;strokeColor=#FF0000;endFill=1;rounded=0" parent="2" source="5" target="7" edge="1">
          <mxGeometry x="100" y="40" as="geometry">
            <mxPoint x="115" y="110" as="targetPoint" />
          </mxGeometry>
        </mxCell>
        <mxCell id="7" value="Log in" style="" parent="2" vertex="1">
          <mxGeometry x="60" y="110" width="110" height="50" as="geometry" />
        </mxCell>
        <mxCell id="9" value="" style="endArrow=open;strokeColor=#FF0000;endFill=1;rounded=0" parent="2" source="7" edge="1">
          <mxGeometry relative="1" as="geometry">
            <mxPoint x="115" y="220" as="targetPoint" />
          </mxGeometry>
        </mxCell>
        <mxCell id="10" value="Is Admin?" style="" parent="2" vertex="1">
          <mxGeometry x="60" y="325" width="110" height="50" as="geometry" />
        </mxCell>
        <mxCell id="11" value="" style="endArrow=open;strokeColor=#FF0000;endFill=1;rounded=0" parent="2" target="10" edge="1">
          <mxGeometry relative="1" as="geometry">
            <mxPoint x="115" y="270" as="sourcePoint" />
          </mxGeometry>
        </mxCell>
        <mxCell id="12" value="" style="edgeStyle=elbowEdgeStyle;elbow=horizontal;strokeColor=#FF0000;endArrow=open;endFill=1;rounded=0;exitX=0;exitY=0.5;exitDx=0;exitDy=0;" parent="2" source="T2-ZAj5n0JojIc-yyqYc-50" target="7" edge="1">
          <mxGeometry width="100" height="100" relative="1" as="geometry">
            <mxPoint x="65.5" y="242" as="sourcePoint" />
            <mxPoint x="260" y="190" as="targetPoint" />
            <Array as="points">
              <mxPoint x="30" y="250" />
            </Array>
          </mxGeometry>
        </mxCell>
        <mxCell id="T2-ZAj5n0JojIc-yyqYc-50" value="Authentication" style="rhombus;fillColor=#ffffc0;strokeColor=#ff0000;" vertex="1" parent="2">
          <mxGeometry x="62.5" y="220" width="105" height="42" as="geometry" />
        </mxCell>
        <mxCell id="T2-ZAj5n0JojIc-yyqYc-53" value="" style="endArrow=open;strokeColor=#FF0000;endFill=1;rounded=0" edge="1" parent="2">
          <mxGeometry relative="1" as="geometry">
            <mxPoint x="59" y="352" as="sourcePoint" />
            <mxPoint x="-104.5" y="142" as="targetPoint" />
            <Array as="points">
              <mxPoint x="-14.5" y="352" />
              <mxPoint x="-14.5" y="142" />
            </Array>
          </mxGeometry>
        </mxCell>
        <mxCell id="T2-ZAj5n0JojIc-yyqYc-56" value="YES" style="edgeLabel;html=1;align=center;verticalAlign=middle;resizable=0;points=[];" vertex="1" connectable="0" parent="T2-ZAj5n0JojIc-yyqYc-53">
          <mxGeometry x="-0.8527" y="-2" relative="1" as="geometry">
            <mxPoint as="offset" />
          </mxGeometry>
        </mxCell>
        <mxCell id="T2-ZAj5n0JojIc-yyqYc-41" value="Admin" style="swimlane;whiteSpace=wrap" vertex="1" parent="1">
          <mxGeometry x="-115.5" y="128" width="280" height="570" as="geometry" />
        </mxCell>
        <mxCell id="T2-ZAj5n0JojIc-yyqYc-44" value="Add employee details" style="" vertex="1" parent="T2-ZAj5n0JojIc-yyqYc-41">
          <mxGeometry x="60" y="110" width="110" height="50" as="geometry" />
        </mxCell>
        <mxCell id="T2-ZAj5n0JojIc-yyqYc-45" value="Update employee &#xa;details" style="" vertex="1" parent="T2-ZAj5n0JojIc-yyqYc-41">
          <mxGeometry x="60" y="220" width="110" height="50" as="geometry" />
        </mxCell>
        <mxCell id="T2-ZAj5n0JojIc-yyqYc-46" value="" style="endArrow=open;strokeColor=#FF0000;endFill=1;rounded=0" edge="1" parent="T2-ZAj5n0JojIc-yyqYc-41" source="T2-ZAj5n0JojIc-yyqYc-44" target="T2-ZAj5n0JojIc-yyqYc-45">
          <mxGeometry relative="1" as="geometry" />
        </mxCell>
        <mxCell id="T2-ZAj5n0JojIc-yyqYc-47" value="Delete employee &#xa;details" style="" vertex="1" parent="T2-ZAj5n0JojIc-yyqYc-41">
          <mxGeometry x="60" y="325" width="110" height="50" as="geometry" />
        </mxCell>
        <mxCell id="T2-ZAj5n0JojIc-yyqYc-48" value="" style="endArrow=open;strokeColor=#FF0000;endFill=1;rounded=0" edge="1" parent="T2-ZAj5n0JojIc-yyqYc-41" source="T2-ZAj5n0JojIc-yyqYc-45" target="T2-ZAj5n0JojIc-yyqYc-47">
          <mxGeometry relative="1" as="geometry" />
        </mxCell>
        <mxCell id="T2-ZAj5n0JojIc-yyqYc-49" value="" style="edgeStyle=elbowEdgeStyle;elbow=horizontal;strokeColor=#FF0000;endArrow=open;endFill=1;rounded=0" edge="1" parent="T2-ZAj5n0JojIc-yyqYc-41" source="T2-ZAj5n0JojIc-yyqYc-47" target="T2-ZAj5n0JojIc-yyqYc-44">
          <mxGeometry width="100" height="100" relative="1" as="geometry">
            <mxPoint x="160" y="290" as="sourcePoint" />
            <mxPoint x="260" y="190" as="targetPoint" />
            <Array as="points">
              <mxPoint x="30" y="250" />
            </Array>
          </mxGeometry>
        </mxCell>
      </root>
    </mxGraphModel>
  </diagram>
</mxfile>
